<?xml version="1.0" standalone="no"?>
<!DOCTYPE svg PUBLIC "-//W3C//DTD SVG 20010904//EN"
 "http://www.w3.org/TR/2001/REC-SVG-20010904/DTD/svg10.dtd">
<svg version="1.0" xmlns="http://www.w3.org/2000/svg"
 width="3334.000000pt" height="3334.000000pt" viewBox="0 0 3334.000000 3334.000000"
 preserveAspectRatio="xMidYMid meet">
<metadata>
Created by potrace 1.16, written by Peter Selinger 2001-2019
</metadata>
<g transform="translate(0.000000,3334.000000) scale(0.100000,-0.100000)"
fill="#000000" stroke="none">
<path d="M0 16665 l0 -16665 16665 0 16665 0 0 16665 0 16665 -16665 0 -16665
0 0 -16665z m21915 7776 c70 -31 113 -98 186 -281 20 -52 51 -130 69 -173 36
-91 40 -151 15 -226 -20 -60 -90 -171 -166 -261 -31 -36 -788 -1071 -1684
-2300 -895 -1229 -1640 -2251 -1654 -2269 -33 -44 -14 -33 69 39 182 159 632
515 910 721 1229 911 2300 1486 3146 1690 254 61 358 73 614 73 259 1 329 -8
510 -66 348 -111 605 -354 724 -686 74 -208 92 -482 47 -737 -179 -1017 -1056
-2579 -2216 -3950 -349 -412 -909 -991 -1259 -1300 -678 -601 -1294 -1029
-1941 -1350 -573 -284 -1101 -453 -1650 -526 -196 -26 -553 -36 -695 -20 -446
52 -783 268 -957 611 -65 127 -123 356 -123 484 0 28 -3 61 -6 73 -7 27 33 79
-420 -552 -925 -1289 -1835 -2589 -3444 -4920 -1043 -1511 -1134 -1639 -1245
-1750 -77 -78 -141 -115 -198 -115 -49 0 -172 48 -272 106 -297 174 -492 401
-555 648 -35 136 -23 438 25 627 43 172 112 339 195 474 118 192 2572 3812
4138 6105 3902 5710 6261 9049 6787 9608 66 71 92 90 169 127 134 65 221 85
385 86 75 0 174 6 221 13 129 20 228 19 275 -3z m-8023 -2681 c254 -18 448
-68 643 -165 190 -95 305 -208 305 -301 l0 -44 83 7 c154 15 464 9 562 -10
278 -55 493 -163 661 -331 306 -306 374 -732 214 -1350 -241 -937 -987 -2189
-1999 -3356 -865 -997 -1858 -1858 -2809 -2434 -963 -583 -1880 -886 -2682
-886 -359 0 -671 71 -966 220 -175 88 -298 175 -442 315 -310 299 -485 667
-522 1097 -12 143 -1 448 25 677 97 850 413 1711 932 2544 799 1282 2090 2481
3525 3275 766 424 1567 699 2153 741 172 12 167 12 317 1z m10813 -6814 c173
-37 282 -93 386 -196 132 -132 191 -289 191 -510 0 -384 -209 -811 -568 -1161
-222 -215 -448 -358 -720 -452 -354 -123 -769 -113 -1014 26 -91 51 -200 168
-249 267 -64 130 -84 245 -78 440 4 131 9 173 35 270 76 286 214 521 442 751
135 136 235 216 382 306 234 142 511 238 788 273 101 12 319 5 405 -14z"/>
<path d="M22328 19789 c-672 -99 -2695 -1687 -4614 -3621 -493 -497 -800 -826
-1107 -1187 l-131 -154 49 -45 c296 -269 659 -347 1155 -246 824 169 1941 887
2999 1929 752 741 1328 1486 1666 2155 194 386 277 655 279 907 1 130 1 131
-29 174 -53 75 -147 106 -267 88z"/>
<path d="M13630 20383 c-8 -3 -78 -28 -155 -56 -1268 -454 -2603 -1466 -3556
-2697 -647 -835 -1064 -1650 -1186 -2320 -24 -135 -24 -401 0 -489 56 -198
178 -320 352 -352 319 -59 973 198 1660 654 697 462 1345 1066 2050 1912 813
974 1370 1863 1506 2402 51 203 36 339 -44 397 -23 17 -49 21 -162 27 -124 5
-139 8 -199 38 -35 17 -79 48 -97 68 -62 71 -100 187 -114 346 -7 80 -12 86
-55 70z"/>
</g>
</svg>
